<svg width="18" height="7" viewBox="0 0 18 7" fill="none" xmlns="http://www.w3.org/2000/svg">
<path id="Vector" d="M0.55896 5.76653V0.853027L3.81446 5.76653V0.853027M13.283 0.853027L12.0545 5.76653L10.8265 0.853027L9.59796 5.76653L8.36946 0.853027M14.247 5.21403C14.5545 5.58253 14.923 5.76653 15.4755 5.76653H16.2125C16.888 5.76653 17.441 5.21403 17.441 4.53803C17.441 3.86203 16.888 3.31003 16.2125 3.31003H15.414C14.7385 3.31003 14.1855 2.75703 14.1855 2.08153C14.1855 1.40603 14.7385 0.853027 15.414 0.853027H16.151C16.704 0.853027 17.0725 0.976028 17.3795 1.40603M4.92196 3.31003H6.51846M7.37846 5.76653H4.92196V0.853027H7.37846" stroke="black" stroke-width="0.7" stroke-linecap="round" stroke-linejoin="round"/>
</svg>
